<svg id="visual" viewBox="0 0 900 600" width="900" height="600" xmlns="http://www.w3.org/2000/svg" xmlns:xlink="http://www.w3.org/1999/xlink" version="1.1"><rect x="0" y="0" width="900" height="600" fill="#f25c5c"></rect><g transform="translate(458.73074350225636 297.79879759602306)"><path d="M100 -162.6C139.1 -130.5 186.9 -118.8 207.2 -90C227.4 -61.3 220.1 -15.3 210.2 27.9C200.3 71 187.8 111.5 161.7 138.4C135.7 165.3 96 178.6 53.2 199.5C10.4 220.4 -35.5 248.8 -82.2 249.2C-128.8 249.5 -176.3 221.7 -203.9 181.4C-231.6 141.1 -239.5 88.3 -237.1 40.1C-234.7 -8.1 -222 -51.8 -194.2 -78.8C-166.5 -105.8 -123.8 -116 -88.9 -150.1C-54.1 -184.1 -27 -242.1 1.7 -244.7C30.5 -247.4 60.9 -194.8 100 -162.6" fill="#9d0000"></path></g></svg>