<svg id="visual" viewBox="0 0 900 600" width="900" height="600" xmlns="http://www.w3.org/2000/svg" xmlns:xlink="http://www.w3.org/1999/xlink" version="1.1"><rect x="0" y="0" width="900" height="600" fill="#715DF2"></rect><g transform="translate(475.5551971040678 265.3922629459588)"><path d="M93.9 -130.8C133.8 -120.5 186.5 -114.9 202 -89.7C217.6 -64.5 195.9 -19.7 176.5 16.3C157.2 52.3 140.2 79.5 125.2 123.3C110.3 167.1 97.4 227.5 64.8 250.8C32.2 274.1 -20.1 260.3 -68.6 242.2C-117 224 -161.7 201.4 -193.7 166.6C-225.6 131.9 -245 84.9 -253.6 35.5C-262.3 -14 -260.3 -66 -239.2 -108.1C-218.2 -150.2 -178 -182.3 -135 -191.2C-91.9 -200 -46 -185.5 -9.5 -170.8C27 -156.1 54.1 -141.1 93.9 -130.8" fill="#6600FF"></path></g></svg>