<svg id="visual" viewBox="0 0 900 600" width="900" height="600" xmlns="http://www.w3.org/2000/svg" xmlns:xlink="http://www.w3.org/1999/xlink" version="1.1"><rect x="0" y="0" width="900" height="600" fill="#5cf27a"></rect><g transform="translate(441.994713336186 278.09503742606654)"><path d="M126.1 -183.6C160.7 -174 184 -134.4 206.5 -92.2C229 -50.1 250.6 -5.5 248.5 38.5C246.5 82.4 220.7 125.7 188 162.2C155.3 198.7 115.5 228.4 74.3 229.8C33.2 231.2 -9.5 204.4 -41 177.7C-72.5 151.1 -93 124.7 -115.1 99.5C-137.3 74.4 -161.2 50.5 -187.8 13.3C-214.4 -23.8 -243.6 -74.2 -228.5 -103C-213.3 -131.9 -153.7 -139.1 -108.2 -143.7C-62.7 -148.3 -31.4 -150.1 7.2 -161.3C45.8 -172.6 91.5 -193.1 126.1 -183.6" fill="#009d33"></path></g></svg>