<svg id="visual" viewBox="0 0 900 600" width="900" height="600" xmlns="http://www.w3.org/2000/svg" xmlns:xlink="http://www.w3.org/1999/xlink" version="1.1"><rect x="0" y="0" width="900" height="600" fill="#f05cf2"></rect><g transform="translate(420.18041800187643 273.95310212030097)"><path d="M131.7 -210.6C155.7 -189.6 149.7 -127.6 157.4 -80.7C165.1 -33.8 186.5 -2 200.1 41.5C213.6 85 219.4 140.1 198.9 183.1C178.3 226 131.4 256.9 81.1 267.9C30.8 278.9 -22.9 269.9 -55.9 238.3C-88.9 206.7 -101.1 152.5 -113.8 112.6C-126.4 72.8 -139.4 47.4 -145.4 19.6C-151.3 -8.1 -150.3 -38.1 -151.6 -83.4C-153 -128.7 -156.8 -189.3 -131.9 -209.9C-107 -230.6 -53.5 -211.3 0.2 -211.6C53.9 -211.8 107.8 -231.7 131.7 -210.6" fill="#91009d"></path></g></svg>